#Comment line ignore any data following # character 
#Hierarchical Translation and Rotation (.htr) file 
[Header]	
#Header keywords are followed by a single value 
FileType HTR		#Single word string
DataType HTRS		#Translation followed by rotation and scale data
FileVersion 1		#integer
NumSegments 84		#integer
NumFrames 2		#integer
DataFrameRate 30		#integer, data frame rate in this file
EulerRotationOrder ZYX
CalibrationUnits mm
RotationUnits Degrees
GlobalAxisofGravity Y
BoneLengthAxis Y
ScaleFactor 1.00
[SegmentNames&Hierarchy]
#CHILD	PARENT
MASTER GLOBAL
root MASTER
chest root
L_mid_tent01 root
R_mid_tent01 root
spine01 root
Bip01_Neck chest
L_humerus chest
R_humerus chest
weapon_bone chest
Bip01_Head Bip01_Neck
eye_left_bone Bip01_Head
eye_right_bone Bip01_Head
L_forearm L_humerus
L_front_hand L_forearm
L_weapon_bone L_forearm
L_front_hand01_01 L_front_hand
L_front_hand02_01 L_front_hand
L_front_hand03_01 L_front_hand
L_front_hand01_02 L_front_hand01_01
L_front_hand02_02 L_front_hand02_01
L_front_hand03_02 L_front_hand03_01
R_forearm R_humerus
R_front_hand R_forearm
R_weapon_bone R_forearm
R_front_hand01_01 R_front_hand
R_front_hand02_01 R_front_hand
R_front_hand03_01 R_front_hand
R_front_hand01_02 R_front_hand01_01
R_front_hand02_02 R_front_hand02_01
R_front_hand03_02 R_front_hand03_01
null_rope01_connect L_mid_tent01
Rope1_Seg01 null_rope01_connect
Rope1_Seg02 Rope1_Seg01
Rope1_Seg03 Rope1_Seg02
Rope1_Seg04 Rope1_Seg03
Rope1_Seg05 Rope1_Seg04
Rope1_Seg06 Rope1_Seg05
Rope1_Seg07 Rope1_Seg06
Rope1_Seg09 Rope1_Seg07
L_mid_hand01 Rope1_Seg09
L_mid_hand02 Rope1_Seg09
L_mid_hand03 Rope1_Seg09
null_rope02_connect R_mid_tent01
Rope2_Seg01 null_rope02_connect
Rope2_Seg02 Rope2_Seg01
Rope2_Seg03 Rope2_Seg02
Rope2_Seg04 Rope2_Seg03
Rope2_Seg05 Rope2_Seg04
Rope2_Seg06 Rope2_Seg05
Rope2_Seg07 Rope2_Seg06
Rope2_Seg09 Rope2_Seg07
R_mid_hand01 Rope2_Seg09
R_mid_hand02 Rope2_Seg09
R_mid_hand03 Rope2_Seg09
spine02 spine01
spine03 spine02
pelvis spine03
null_rope03_connect pelvis
null_rope04_connect pelvis
Rope3_Seg01 null_rope03_connect
Rope3_Seg02 Rope3_Seg01
Rope3_Seg03 Rope3_Seg02
Rope3_Seg04 Rope3_Seg03
Rope3_Seg05 Rope3_Seg04
Rope3_Seg06 Rope3_Seg05
Rope3_Seg07 Rope3_Seg06
Rope3_Seg08 Rope3_Seg07
Rope3_Seg09 Rope3_Seg08
R_rear_hand01 Rope3_Seg09
R_rear_hand02 Rope3_Seg09
R_rear_hand03 Rope3_Seg09
Rope4_Seg01 null_rope04_connect
Rope4_Seg02 Rope4_Seg01
Rope4_Seg03 Rope4_Seg02
Rope4_Seg04 Rope4_Seg03
Rope4_Seg05 Rope4_Seg04
Rope4_Seg06 Rope4_Seg05
Rope4_Seg07 Rope4_Seg06
Rope4_Seg08 Rope4_Seg07
Rope4_Seg09 Rope4_Seg08
L_rear_hand01 Rope4_Seg09
L_rear_hand02 Rope4_Seg09
L_rear_hand03 Rope4_Seg09
[BasePosition]
#SegmentName Tx, Ty, Tz, Rx, Ry, Rz, BoneLength
MASTER 0.000000 0.000000 0.000000 -90.000000 0.000000 0.000000 10.000000 
root 0.000000 0.000000 0.000000 0.000000 0.000000 0.000000 10.000000 
chest 0.000000 0.000000 0.000000 0.000000 0.000000 0.000000 10.000000 
L_mid_tent01 0.000000 0.000000 0.000000 0.000000 0.000000 0.000000 10.000000 
R_mid_tent01 0.000000 0.000000 0.000000 0.000000 0.000000 0.000000 10.000000 
spine01 0.000000 0.000000 0.000000 0.000000 0.000000 0.000000 10.000000 
Bip01_Neck 0.000000 0.000000 0.000000 0.000000 0.000000 0.000000 10.000000 
L_humerus 0.000000 0.000000 0.000000 0.000000 0.000000 0.000000 10.000000 
R_humerus 0.000000 0.000000 0.000000 0.000000 0.000000 0.000000 10.000000 
weapon_bone 0.000000 0.000000 0.000000 0.000000 0.000000 0.000000 10.000000 
Bip01_Head 0.000000 0.000000 0.000000 0.000000 0.000000 0.000000 10.000000 
eye_left_bone 0.000000 0.000000 0.000000 0.000000 0.000000 0.000000 10.000000 
eye_right_bone 0.000000 0.000000 0.000000 0.000000 0.000000 0.000000 10.000000 
L_forearm 0.000000 0.000000 0.000000 0.000000 0.000000 0.000000 10.000000 
L_front_hand 0.000000 0.000000 0.000000 0.000000 0.000000 0.000000 10.000000 
L_weapon_bone 0.000000 0.000000 0.000000 0.000000 0.000000 0.000000 10.000000 
L_front_hand01_01 0.000000 0.000000 0.000000 0.000000 0.000000 0.000000 10.000000 
L_front_hand02_01 0.000000 0.000000 0.000000 0.000000 0.000000 0.000000 10.000000 
L_front_hand03_01 0.000000 0.000000 0.000000 0.000000 0.000000 0.000000 10.000000 
L_front_hand01_02 0.000000 0.000000 0.000000 0.000000 0.000000 0.000000 10.000000 
L_front_hand02_02 0.000000 0.000000 0.000000 0.000000 0.000000 0.000000 10.000000 
L_front_hand03_02 0.000000 0.000000 0.000000 0.000000 0.000000 0.000000 10.000000 
R_forearm 0.000000 0.000000 0.000000 0.000000 0.000000 0.000000 10.000000 
R_front_hand 0.000000 0.000000 0.000000 0.000000 0.000000 0.000000 10.000000 
R_weapon_bone 0.000000 0.000000 0.000000 0.000000 0.000000 0.000000 10.000000 
R_front_hand01_01 0.000000 0.000000 0.000000 0.000000 0.000000 0.000000 10.000000 
R_front_hand02_01 0.000000 0.000000 0.000000 0.000000 0.000000 0.000000 10.000000 
R_front_hand03_01 0.000000 0.000000 0.000000 0.000000 0.000000 0.000000 10.000000 
R_front_hand01_02 0.000000 0.000000 0.000000 0.000000 0.000000 0.000000 10.000000 
R_front_hand02_02 0.000000 0.000000 0.000000 0.000000 0.000000 0.000000 10.000000 
R_front_hand03_02 0.000000 0.000000 0.000000 0.000000 0.000000 0.000000 10.000000 
null_rope01_connect 0.000000 0.000000 0.000000 0.000000 0.000000 0.000000 10.000000 
Rope1_Seg01 0.000000 0.000000 0.000000 0.000000 0.000000 0.000000 10.000000 
Rope1_Seg02 0.000000 0.000000 0.000000 0.000000 0.000000 0.000000 10.000000 
Rope1_Seg03 0.000000 0.000000 0.000000 0.000000 0.000000 0.000000 10.000000 
Rope1_Seg04 0.000000 0.000000 0.000000 0.000000 0.000000 0.000000 10.000000 
Rope1_Seg05 0.000000 0.000000 0.000000 0.000000 0.000000 0.000000 10.000000 
Rope1_Seg06 0.000000 0.000000 0.000000 0.000000 0.000000 0.000000 10.000000 
Rope1_Seg07 0.000000 0.000000 0.000000 0.000000 0.000000 0.000000 10.000000 
Rope1_Seg09 0.000000 0.000000 0.000000 0.000000 0.000000 0.000000 10.000000 
L_mid_hand01 0.000000 0.000000 0.000000 0.000000 0.000000 0.000000 10.000000 
L_mid_hand02 0.000000 0.000000 0.000000 0.000000 0.000000 0.000000 10.000000 
L_mid_hand03 0.000000 0.000000 0.000000 0.000000 0.000000 0.000000 10.000000 
null_rope02_connect 0.000000 0.000000 0.000000 0.000000 0.000000 0.000000 10.000000 
Rope2_Seg01 0.000000 0.000000 0.000000 0.000000 0.000000 0.000000 10.000000 
Rope2_Seg02 0.000000 0.000000 0.000000 0.000000 0.000000 0.000000 10.000000 
Rope2_Seg03 0.000000 0.000000 0.000000 0.000000 0.000000 0.000000 10.000000 
Rope2_Seg04 0.000000 0.000000 0.000000 0.000000 0.000000 0.000000 10.000000 
Rope2_Seg05 0.000000 0.000000 0.000000 0.000000 0.000000 0.000000 10.000000 
Rope2_Seg06 0.000000 0.000000 0.000000 0.000000 0.000000 0.000000 10.000000 
Rope2_Seg07 0.000000 0.000000 0.000000 0.000000 0.000000 0.000000 10.000000 
Rope2_Seg09 0.000000 0.000000 0.000000 0.000000 0.000000 0.000000 10.000000 
R_mid_hand01 0.000000 0.000000 0.000000 0.000000 0.000000 0.000000 10.000000 
R_mid_hand02 0.000000 0.000000 0.000000 0.000000 0.000000 0.000000 10.000000 
R_mid_hand03 0.000000 0.000000 0.000000 0.000000 0.000000 0.000000 10.000000 
spine02 0.000000 0.000000 0.000000 0.000000 0.000000 0.000000 10.000000 
spine03 0.000000 0.000000 0.000000 0.000000 0.000000 0.000000 10.000000 
pelvis 0.000000 0.000000 0.000000 0.000000 0.000000 0.000000 10.000000 
null_rope03_connect 0.000000 0.000000 0.000000 0.000000 0.000000 0.000000 10.000000 
null_rope04_connect 0.000000 0.000000 0.000000 0.000000 0.000000 0.000000 10.000000 
Rope3_Seg01 0.000000 0.000000 0.000000 0.000000 0.000000 0.000000 10.000000 
Rope3_Seg02 0.000000 0.000000 0.000000 0.000000 0.000000 0.000000 10.000000 
Rope3_Seg03 0.000000 0.000000 0.000000 0.000000 0.000000 0.000000 10.000000 
Rope3_Seg04 0.000000 0.000000 0.000000 0.000000 0.000000 0.000000 10.000000 
Rope3_Seg05 0.000000 0.000000 0.000000 0.000000 0.000000 0.000000 10.000000 
Rope3_Seg06 0.000000 0.000000 0.000000 0.000000 0.000000 0.000000 10.000000 
Rope3_Seg07 0.000000 0.000000 0.000000 0.000000 0.000000 0.000000 10.000000 
Rope3_Seg08 0.000000 0.000000 0.000000 0.000000 0.000000 0.000000 10.000000 
Rope3_Seg09 0.000000 0.000000 0.000000 0.000000 0.000000 0.000000 10.000000 
R_rear_hand01 0.000000 0.000000 0.000000 0.000000 0.000000 0.000000 10.000000 
R_rear_hand02 0.000000 0.000000 0.000000 0.000000 0.000000 0.000000 10.000000 
R_rear_hand03 0.000000 0.000000 0.000000 0.000000 0.000000 0.000000 10.000000 
Rope4_Seg01 0.000000 0.000000 0.000000 0.000000 0.000000 0.000000 10.000000 
Rope4_Seg02 0.000000 0.000000 0.000000 0.000000 0.000000 0.000000 10.000000 
Rope4_Seg03 0.000000 0.000000 0.000000 0.000000 0.000000 0.000000 10.000000 
Rope4_Seg04 0.000000 0.000000 0.000000 0.000000 0.000000 0.000000 10.000000 
Rope4_Seg05 0.000000 0.000000 0.000000 0.000000 0.000000 0.000000 10.000000 
Rope4_Seg06 0.000000 0.000000 0.000000 0.000000 0.000000 0.000000 10.000000 
Rope4_Seg07 0.000000 0.000000 0.000000 0.000000 0.000000 0.000000 10.000000 
Rope4_Seg08 0.000000 0.000000 0.000000 0.000000 0.000000 0.000000 10.000000 
Rope4_Seg09 0.000000 0.000000 0.000000 0.000000 0.000000 0.000000 10.000000 
L_rear_hand01 0.000000 0.000000 0.000000 0.000000 0.000000 0.000000 10.000000 
L_rear_hand02 0.000000 0.000000 0.000000 0.000000 0.000000 0.000000 10.000000 
L_rear_hand03 0.000000 0.000000 0.000000 0.000000 0.000000 0.000000 10.000000 
#Beginning of Data. Separated by tabs
#Fr	Tx	Ty	Tz	Rx	Ry	Rz	SF
[MASTER]
36 -0.000658 4374.998047 0.000000 0.001660 0.001660 0.001660 4374.998047
37 -0.000677 4499.997559 0.000000 0.001660 0.001660 0.001660 4499.997559
[root]
36 -25.002468 -49.203865 1503.388062 -91.728889 -11.584497 -89.471619 1504.400757
37 -22.793360 -37.491070 1492.374390 -91.728889 -11.584497 -89.471619 1493.019287
[chest]
36 -84.512650 -34.090519 0.000000 -2.172562 -0.021517 168.067490 91.129311
37 -84.512650 -34.090519 0.000000 -2.171274 -0.017000 168.123764 91.129311
[L_mid_tent01]
36 27.299177 22.179258 -249.918671 -20.557220 10.688005 13.494953 252.381668
37 27.299181 22.179258 -249.918671 -20.578058 10.985432 13.381304 252.381668
[R_mid_tent01]
36 23.228794 24.509907 226.238495 -165.386337 -15.526175 24.721319 228.744751
37 23.228794 24.509907 226.238495 -165.346176 -16.047316 24.580482 228.744751
[spine01]
36 -0.361383 -0.195265 0.000000 0.001948 0.001310 22.137520 0.410763
37 -0.361383 -0.195265 0.000000 0.001947 0.001311 22.109804 0.410763
[Bip01_Neck]
36 165.484543 71.581718 0.000119 176.643677 -1.657967 43.431911 180.302734
37 165.484543 71.581718 0.000119 176.643677 -1.657967 43.431911 180.302734
[L_humerus]
36 -13.983130 -135.272980 -120.471481 -174.528503 79.145416 -84.073311 181.680161
37 -13.983130 -135.272980 -120.471481 -161.640259 85.940254 -71.268883 181.680161
[R_humerus]
36 -13.983309 -135.273102 125.287651 153.486008 -76.548912 -57.477676 184.909012
37 -13.983309 -135.273102 125.287651 129.122314 -81.241867 -33.190205 184.909012
[weapon_bone]
36 235.964890 -300.705902 0.000000 0.000000 -89.951546 -128.212341 382.234833
37 235.964890 -300.705902 0.000000 0.000000 -89.951546 -128.212341 382.234833
[Bip01_Head]
36 213.330368 186.033615 7.670435 4.440535 -0.307632 -43.897709 283.155792
37 213.329697 186.035309 7.648198 4.440639 -0.175511 -43.897781 283.155792
[eye_left_bone]
36 -24.626970 125.451866 -64.772606 0.000000 -90.000000 -99.840431 143.318359
37 -24.626970 125.451866 -64.772606 0.000000 -90.000000 -99.840431 143.318359
[eye_right_bone]
36 -24.626970 125.451866 64.327362 0.000000 -89.965736 80.156380 143.117676
37 -24.626970 125.451866 64.327362 0.000000 -89.965736 80.156380 143.117676
[L_forearm]
36 322.776093 0.000000 -0.000119 0.000399 -0.002313 -109.593559 322.776093
37 322.776093 0.000000 -0.000119 0.000398 -0.002313 -109.537056 322.776093
[L_front_hand]
36 241.149185 -0.042021 -3.300071 -178.667953 -1.835447 -27.422350 241.171753
37 241.149185 -0.042021 -3.300071 -178.667953 -1.835447 -27.422342 241.171753
[L_weapon_bone]
36 156.183838 0.000000 0.000000 0.000014 0.000007 0.000001 156.183838
37 156.183838 0.000000 0.000000 0.000014 0.000007 0.000001 156.183838
[L_front_hand01_01]
36 86.095154 20.947098 -0.655860 -0.366594 -0.477154 75.385574 88.609184
37 86.095154 20.947098 -0.655860 -0.366594 -0.477154 75.385574 88.609184
[L_front_hand02_01]
36 86.935165 -11.437475 24.513514 154.399796 -59.883835 -61.369587 91.046425
37 86.935165 -11.437475 24.513514 154.399796 -59.883835 -61.369587 91.046425
[L_front_hand03_01]
36 86.637497 -14.123976 -20.424902 -153.913849 58.118130 -62.702866 90.126129
37 86.637497 -14.123976 -20.424902 -153.913849 58.118122 -62.702866 90.126129
[L_front_hand01_02]
36 71.020905 -0.000179 0.000030 0.000332 -0.002324 -106.274635 71.020905
37 71.020905 -0.000179 0.000030 0.000333 -0.002323 -106.308632 71.020905
[L_front_hand02_02]
36 71.020927 -0.000119 0.000060 0.000332 -0.002324 -106.274635 71.020927
37 71.020927 -0.000119 0.000060 0.000333 -0.002323 -106.308632 71.020927
[L_front_hand03_02]
36 71.020905 -0.000060 0.000060 0.000332 -0.002324 -106.274635 71.020905
37 71.020905 -0.000060 0.000060 0.000333 -0.002323 -106.308632 71.020905
[R_forearm]
36 322.776428 -0.000060 0.000030 0.202002 0.065470 -108.239906 322.776428
37 322.776428 -0.000060 0.000030 0.202033 0.065373 -108.184967 322.776428
[R_front_hand]
36 238.847015 -0.006795 2.210259 -2.635298 -10.645461 -26.312506 238.857239
37 238.847015 -0.006795 2.210259 -2.635298 -10.645461 -26.312506 238.857239
[R_weapon_bone]
36 155.664093 0.002503 -0.000030 0.003487 0.001180 -90.988930 155.664078
37 155.664093 0.002503 -0.000030 0.003487 0.001180 -90.988930 155.664078
[R_front_hand01_01]
36 87.624611 14.231146 22.918642 -154.633484 -59.950619 61.746037 91.683487
37 87.624611 14.231146 22.918642 -154.633484 -59.950619 61.746037 91.683487
[R_front_hand02_01]
36 89.356956 14.367283 -19.491137 154.602661 58.302849 63.744389 92.579636
37 89.356956 14.367283 -19.491137 154.602661 58.302849 63.744389 92.579636
[R_front_hand03_01]
36 87.286232 -22.307278 -0.143439 0.162155 -0.423168 -75.767921 90.091743
37 87.286232 -22.307278 -0.143439 0.162155 -0.423168 -75.767921 90.091743
[R_front_hand01_02]
36 71.020905 0.000060 0.000119 0.002323 -0.000334 106.381714 71.020905
37 71.020905 0.000060 0.000119 0.002323 -0.000334 106.381714 71.020905
[R_front_hand02_02]
36 71.020844 -0.000030 -0.000119 0.002323 -0.000334 106.381714 71.020836
37 71.020844 -0.000030 -0.000119 0.002323 -0.000334 106.381714 71.020836
[R_front_hand03_02]
36 71.020905 0.000000 0.000030 0.002323 -0.000334 106.381714 71.020905
37 71.020905 0.000000 0.000030 0.002323 -0.000334 106.381714 71.020905
[null_rope01_connect]
36 328.732483 0.000000 -0.000238 -157.493683 -65.455276 -116.183525 328.732483
37 328.732483 0.000000 -0.000238 -156.810745 -65.314575 -116.803955 328.732483
[Rope1_Seg01]
36 -0.000033 -0.000272 0.000019 83.134651 4.210951 -98.725525 0.000275
37 -0.000034 -0.000278 0.000015 83.790703 4.337475 -98.105713 0.000281
[Rope1_Seg02]
36 139.999863 -0.000179 0.000000 4.006148 5.576269 -1.269748 139.999863
37 139.999863 -0.000179 0.000000 3.941863 5.478246 -1.182041 139.999863
[Rope1_Seg03]
36 139.999924 0.000060 -0.000060 -0.310553 4.048575 -4.766478 139.999924
37 139.999924 0.000060 -0.000060 -0.022420 4.169144 -4.469203 139.999924
[Rope1_Seg04]
36 139.999924 -0.000060 -0.000119 5.458134 6.749815 1.667942 139.999924
37 139.999924 -0.000060 -0.000119 4.987814 6.217637 1.487389 139.999924
[Rope1_Seg05]
36 139.999832 0.000119 -0.000060 8.382731 5.792188 7.407004 139.999832
37 139.999832 0.000119 -0.000060 7.733103 5.000230 7.116465 139.999832
[Rope1_Seg06]
36 139.999954 0.000119 -0.000060 2.811422 2.485706 2.017352 139.999954
37 139.999954 0.000119 -0.000060 2.718321 2.229218 2.048707 139.999954
[Rope1_Seg07]
36 139.999985 0.000060 0.000000 1.487738 1.453455 0.950482 139.999985
37 139.999985 0.000060 0.000000 1.452250 1.319906 0.973058 139.999985
[Rope1_Seg09]
36 121.602913 0.000119 -0.000089 -89.793175 -1.359789 0.847147 121.602913
37 121.602913 0.000119 -0.000089 -89.793175 -1.359789 0.847147 121.602913
[L_mid_hand01]
36 103.859421 1.038730 8.195221 130.544373 -67.584534 -38.866943 104.187431
37 103.859421 1.038730 8.195221 130.544373 -67.584534 -38.866943 104.187431
[L_mid_hand02]
36 105.572853 -4.139662 -10.864139 -168.923172 43.409309 -73.498886 106.211075
37 105.572853 -4.139662 -10.864139 -168.923172 43.409309 -73.498886 106.211075
[L_mid_hand03]
36 104.641464 17.579376 -3.913581 -6.012627 17.808174 74.893669 106.179977
37 104.641464 17.579376 -3.913581 -6.012626 17.808172 74.893661 106.179977
[null_rope02_connect]
36 328.732849 0.000179 -0.000119 -144.459335 70.099571 -39.123554 328.732849
37 328.732849 0.000179 -0.000119 -143.475662 69.681152 -38.199715 328.732849
[Rope2_Seg01]
36 0.000110 -0.000253 0.000000 -35.473545 -0.008276 -78.281036 0.000275
37 0.000111 -0.000263 0.000000 -35.474251 0.705530 -79.485306 0.000286
[Rope2_Seg02]
36 139.999741 -0.000060 -0.000119 0.341854 3.879201 -1.352602 139.999756
37 139.999741 -0.000060 -0.000119 0.983331 3.304861 -0.444991 139.999756
[Rope2_Seg03]
36 140.000107 0.000030 0.000000 3.949225 1.597183 3.407740 140.000107
37 140.000107 0.000030 0.000000 4.573893 1.595754 4.110457 140.000107
[Rope2_Seg04]
36 139.999802 0.000000 -0.000060 -4.786442 3.414603 -7.232213 139.999802
37 139.999802 0.000000 -0.000060 -4.755921 2.429369 -6.732412 139.999802
[Rope2_Seg05]
36 139.999985 -0.000060 0.000119 -5.757193 3.903547 -10.405175 139.999985
37 139.999985 -0.000060 0.000119 -6.373317 2.726853 -10.534659 139.999985
[Rope2_Seg06]
36 139.999893 -0.000030 -0.000119 -1.660686 2.121907 -3.967720 139.999893
37 139.999893 -0.000030 -0.000119 -1.935200 1.709607 -4.084555 139.999893
[Rope2_Seg07]
36 139.999893 0.000060 -0.000060 -0.861927 1.354459 -2.328438 139.999893
37 139.999893 0.000060 -0.000060 -1.021350 1.127918 -2.407439 139.999893
[Rope2_Seg09]
36 121.338966 0.000089 -0.000060 33.793236 -1.359788 -0.847141 121.338966
37 121.338966 0.000089 -0.000060 33.793236 -1.359788 -0.847141 121.338966
[R_mid_hand01]
36 104.680779 11.144459 -10.335981 -16.212059 45.237240 70.462852 105.778534
37 104.680779 11.144459 -10.335981 -16.212063 45.237247 70.462852 105.778534
[R_mid_hand02]
36 104.070427 2.443552 8.231699 49.067368 -67.749771 39.286453 104.424065
37 104.070427 2.443552 8.231699 49.067368 -67.749771 39.286453 104.424065
[R_mid_hand03]
36 106.028137 -11.221827 -5.996406 -177.101105 15.551026 -76.585571 106.788818
37 106.028137 -11.221827 -5.996406 -177.101105 15.551026 -76.585571 106.788818
[spine02]
36 129.756927 0.001550 0.000119 0.376072 -4.043172 -13.159690 129.756927
37 129.756927 0.001550 0.000119 0.370442 -4.043746 -13.069825 129.756927
[spine03]
36 78.613907 0.081635 -4.899022 1.905061 3.828187 16.631649 78.766449
37 78.613907 0.081635 -4.899023 1.901699 3.829284 16.579878 78.766449
[pelvis]
36 169.435242 0.051022 0.000000 -0.060943 -0.180064 14.391958 169.435257
37 169.435242 0.051022 0.000000 -0.060794 -0.180115 14.297258 169.435257
[null_rope03_connect]
36 -1.257226 -2.466202 137.391083 155.807617 -89.396393 -94.197525 137.418976
37 -1.257226 -2.466202 137.391083 155.893677 -89.392189 -94.193634 137.418976
[null_rope04_connect]
36 -1.259640 -2.480268 -137.844437 155.807617 -89.396393 -94.197525 137.872513
37 -1.259640 -2.480268 -137.844437 155.893677 -89.392189 -94.193634 137.872513
[Rope3_Seg01]
36 0.000010 0.000038 -0.000114 10.307102 33.508537 -94.727577 0.000121
37 0.000010 0.000038 -0.000114 11.457603 33.017899 -92.769760 0.000121
[Rope3_Seg02]
36 139.999924 -0.000119 0.000060 0.311757 -3.371522 3.085271 139.999924
37 139.999924 -0.000119 0.000060 0.208305 -3.140211 2.752007 139.999924
[Rope3_Seg03]
36 139.999924 -0.000119 0.000119 0.249661 -4.482423 4.165237 139.999924
37 139.999924 -0.000119 0.000119 0.150438 -4.076268 3.609554 139.999924
[Rope3_Seg04]
36 139.999924 0.000119 0.000000 -0.332860 -5.883127 8.812674 139.999924
37 139.999924 0.000119 0.000000 -0.289064 -4.436266 7.367810 139.999924
[Rope3_Seg05]
36 139.999924 -0.000238 0.000060 -0.715362 -9.454666 6.739404 139.999924
37 139.999924 -0.000238 0.000060 -0.599069 -8.682441 5.619419 139.999924
[Rope3_Seg06]
36 139.999893 -0.000119 -0.000060 0.856602 -6.409055 -6.226405 139.999893
37 139.999893 -0.000119 -0.000060 1.050649 -8.866760 -5.136447 139.999893
[Rope3_Seg07]
36 139.999771 0.000060 -0.000119 0.863200 -3.671775 -2.327155 139.999771
37 139.999771 0.000060 -0.000119 1.099828 -4.921922 -2.050658 139.999771
[Rope3_Seg08]
36 139.999985 -0.000060 0.000000 0.845517 -2.257088 -0.900476 139.999985
37 139.999985 -0.000060 0.000000 1.014865 -2.900310 -0.741420 139.999985
[Rope3_Seg09]
36 90.185997 -0.000179 -0.000060 89.793228 -1.359877 -0.847183 90.185997
37 90.185997 -0.000179 -0.000060 89.793228 -1.359877 -0.847183 90.185997
[R_rear_hand01]
36 103.366196 -6.073594 -10.757982 -177.714203 24.565960 -73.910950 104.101845
37 103.366196 -6.073594 -10.757982 -177.714203 24.565960 -73.910950 104.101845
[R_rear_hand02]
36 100.509819 12.039542 -7.992327 -12.874829 36.868488 72.167213 101.543350
37 100.509819 12.039542 -7.992327 -12.874829 36.868488 72.167213 101.543350
[R_rear_hand03]
36 101.539970 5.215704 5.435467 71.484581 -71.816628 21.513813 101.819031
37 101.539970 5.215704 5.435467 71.484581 -71.816628 21.513813 101.819031
[Rope4_Seg01]
36 0.000010 0.000038 -0.000114 -92.785873 27.820185 -85.880211 0.000121
37 0.000010 0.000038 -0.000114 -92.829094 27.440351 -85.889038 0.000121
[Rope4_Seg02]
36 139.999985 0.000060 0.000119 -0.075613 -0.167343 -1.274253 139.999985
37 139.999985 0.000060 0.000119 -0.031504 -0.191470 -0.873689 139.999985
[Rope4_Seg03]
36 139.999924 0.000000 -0.000238 -0.075710 -0.162379 -1.244578 139.999924
37 139.999924 0.000000 -0.000238 -0.016769 -0.196289 -0.789639 139.999924
[Rope4_Seg04]
36 139.999985 0.000000 0.000119 0.313096 0.242882 2.237915 139.999985
37 139.999985 0.000000 0.000119 0.405306 0.104198 3.182515 139.999985
[Rope4_Seg05]
36 139.999802 -0.000060 -0.000119 -0.680492 -0.809835 -6.510783 139.999802
37 139.999802 -0.000060 -0.000119 -0.660793 -0.750063 -6.640047 139.999802
[Rope4_Seg06]
36 139.999924 0.000000 0.000060 -1.839131 -1.151714 -10.550809 139.999924
37 139.999924 0.000000 0.000060 -1.940496 -0.920023 -11.244371 139.999924
[Rope4_Seg07]
36 139.999802 0.000000 0.000000 -1.111318 -0.367551 -4.887796 139.999802
37 139.999802 0.000000 0.000000 -1.130937 -0.250775 -5.007693 139.999802
[Rope4_Seg08]
36 139.999924 0.000000 0.000119 -2.230804 -0.159607 -2.691392 139.999924
37 139.999924 0.000000 0.000119 -2.232513 -0.086230 -2.732402 139.999924
[Rope4_Seg09]
36 90.185791 0.000060 0.000060 -135.617828 2.228885 0.850567 90.185791
37 90.185791 0.000060 0.000060 -135.617828 2.228885 0.850567 90.185791
[L_rear_hand01]
36 101.696655 -8.392275 -7.654577 -12.874829 -36.868488 107.832764 102.329041
37 101.696655 -8.392275 -7.654577 -12.874829 -36.868488 107.832764 102.329041
[L_rear_hand02]
36 102.726799 -1.568258 5.773216 71.484581 71.816628 158.486160 102.900848
37 102.726799 -1.568258 5.773216 71.484581 71.816628 158.486160 102.900848
[L_rear_hand03]
36 104.552910 9.721220 -10.420293 -177.714203 -24.565960 -106.089035 105.519653
37 104.552910 9.721220 -10.420293 -177.714203 -24.565960 -106.089035 105.519653
